<svg width="162" height="162" viewBox="0 0 162 162" fill="none" xmlns="http://www.w3.org/2000/svg">
<path d="M162 0H54L162 108V0Z" fill="#78E7D4"/>
<mask id="mask0" mask-type="alpha" maskUnits="userSpaceOnUse" x="54" y="0" width="108" height="108">
<path d="M162 0H54L162 108V0Z" fill="#78E7D4"/>
</mask>
<g mask="url(#mask0)">
<path d="M99.941 53.7532L105.702 47.9927C104.22 46.8406 103.562 46.1823 103.233 45.8531C100.764 43.3843 100.106 40.4218 101.422 37.1301C101.916 35.978 102.245 34.6613 102.245 33.6738C102.245 33.3446 102.245 33.0155 102.245 32.3571C102.245 31.6988 102.081 31.205 102.081 30.5467C101.916 30.0529 101.916 29.7238 102.081 29.5592C102.41 29.23 102.739 29.5592 103.397 30.2175C104.056 30.8759 104.549 31.6988 104.714 32.5217C104.879 33.3446 105.043 34.1676 104.879 34.9905C104.714 35.8134 104.549 36.6363 104.549 37.6238C104.385 38.4468 104.549 39.2697 104.714 40.0926C104.879 40.9155 105.372 41.7385 106.195 42.5614C107.183 43.5489 108.17 44.2073 109.487 44.8656C110.968 43.7135 112.779 43.5489 114.425 43.8781C110.968 39.7635 109.158 35.978 108.829 32.6863C108.499 29.3946 110.145 25.7737 113.766 22.1528C116.4 19.5195 119.527 18.0382 122.983 17.8736C123.97 16.5569 124.629 15.5694 125.616 14.5819C126.933 13.2652 128.579 12.2777 130.389 11.784C131.706 13.1007 132.693 14.4173 133.187 15.8986C133.681 17.3799 134.175 19.1903 134.504 21.4945C136.644 22.9758 138.783 24.457 140.923 26.5966C142.733 28.4071 144.214 30.2175 145.531 32.1925C147.835 32.5217 149.646 33.0155 150.962 33.6738C152.444 34.1676 153.76 35.1551 155.077 36.4718C154.583 38.2822 153.596 39.928 152.279 41.2447C151.292 42.2322 150.14 43.0552 148.987 43.5489C148.823 47.0052 147.342 50.1323 144.708 52.7657C141.087 56.3866 137.631 57.8678 134.175 57.7032C130.718 57.5387 127.098 55.5636 122.983 52.1073C123.477 54.9053 122.654 57.0449 120.843 58.8553L112.943 66.7554L99.941 53.7532Z" fill="black"/>
</g>
</svg>
